# Blender v3.0.1 OBJ File: 'gateway.blend'
# www.blender.org
o Cylinder_Cylinder.001
v 0.000000 1.000000 0.150000
v 0.195090 0.980785 0.150000
v 0.382683 0.923880 0.150000
v 0.555570 0.831470 0.150000
v 0.707107 0.707107 0.150000
v 0.831470 0.555570 0.150000
v 0.923880 0.382683 0.150000
v 0.980785 0.195090 0.150000
v 1.000000 -0.000000 0.150000
v 0.980785 -0.195090 0.150000
v 0.923880 -0.382683 0.150000
v 0.831470 -0.555570 0.150000
v 0.707107 -0.707107 0.150000
v 0.555570 -0.831470 0.150000
v 0.382683 -0.923880 0.150000
v 0.195090 -0.980785 0.150000
v -0.000000 -1.000000 0.150000
v -0.195090 -0.980785 0.150000
v -0.382683 -0.923880 0.150000
v -0.555570 -0.831470 0.150000
v -0.707107 -0.707107 0.150000
v -0.831469 -0.555570 0.150000
v -0.923880 -0.382684 0.150000
v -0.980785 -0.195090 0.150000
v -1.000000 0.000000 0.150000
v -0.980785 0.195090 0.150000
v -0.923879 0.382684 0.150000
v -0.831470 0.555570 0.150000
v -0.707107 0.707107 0.150000
v -0.555570 0.831470 0.150000
v -0.382683 0.923880 0.150000
v -0.195090 0.980785 0.150000
v 0.000000 1.000000 0.000000
v 0.195090 0.980785 0.000000
v 0.382683 0.923880 0.000000
v 0.555570 0.831470 0.000000
v 0.707107 0.707107 0.000000
v 0.831470 0.555570 0.000000
v 0.923880 0.382683 0.000000
v 0.980785 0.195090 0.000000
v 1.000000 -0.000000 0.000000
v 0.980785 -0.195090 0.000000
v 0.923880 -0.382683 0.000000
v 0.831470 -0.555570 0.000000
v 0.707107 -0.707107 0.000000
v 0.555570 -0.831470 0.000000
v 0.382683 -0.923880 0.000000
v 0.195090 -0.980785 0.000000
v -0.000000 -1.000000 0.000000
v -0.195090 -0.980785 0.000000
v -0.382683 -0.923880 0.000000
v -0.555570 -0.831470 0.000000
v -0.707107 -0.707107 0.000000
v -0.831469 -0.555570 0.000000
v -0.923880 -0.382684 0.000000
v -0.980785 -0.195090 0.000000
v -1.000000 0.000000 0.000000
v -0.980785 0.195090 0.000000
v -0.923879 0.382684 0.000000
v -0.831470 0.555570 0.000000
v -0.707107 0.707107 0.000000
v -0.555570 0.831470 0.000000
v -0.382683 0.923880 0.000000
v -0.195090 0.980785 0.000000
v 0.990393 -0.097545 0.150000
v 0.990393 -0.097545 0.000000
v 0.099808 0.412976 0.150000
v 0.017323 0.421100 0.150000
v 0.179124 0.388916 0.150000
v 0.252221 0.349844 0.150000
v 0.316292 0.297263 0.150000
v 0.368873 0.233192 0.150000
v 0.407945 0.160095 0.150000
v 0.432005 0.080779 0.150000
v 0.440129 -0.001706 0.150000
v 0.436067 -0.042949 0.150000
v 0.407945 -0.163507 0.150000
v 0.432005 -0.084192 0.150000
v 0.368873 -0.236605 0.150000
v 0.316292 -0.300675 0.150000
v 0.252221 -0.353257 0.150000
v 0.179124 -0.392328 0.150000
v 0.099808 -0.416388 0.150000
v 0.017323 -0.424513 0.150000
v -0.065163 -0.416388 0.150000
v -0.144478 -0.392328 0.150000
v -0.217576 -0.353257 0.150000
v -0.281647 -0.300675 0.150000
v -0.334228 -0.236605 0.150000
v -0.373299 -0.163507 0.150000
v -0.397360 -0.084192 0.150000
v -0.405484 -0.001706 0.150000
v -0.397360 0.080779 0.150000
v -0.373299 0.160095 0.150000
v -0.334228 0.233192 0.150000
v -0.281647 0.297263 0.150000
v -0.217576 0.349844 0.150000
v -0.144478 0.388916 0.150000
v -0.065163 0.412976 0.150000
v 0.099808 0.412976 0.089185
v 0.017323 0.421100 0.089185
v 0.179124 0.388916 0.089185
v 0.252221 0.349844 0.089185
v 0.316292 0.297263 0.089185
v 0.368873 0.233192 0.089185
v 0.407945 0.160095 0.089185
v 0.432005 0.080779 0.089185
v 0.440129 -0.001706 0.089185
v 0.436067 -0.042949 0.089185
v 0.407945 -0.163507 0.089185
v 0.432005 -0.084192 0.089185
v 0.368873 -0.236605 0.089185
v 0.316292 -0.300675 0.089185
v 0.252221 -0.353257 0.089185
v 0.179124 -0.392328 0.089185
v 0.099808 -0.416388 0.089185
v 0.017323 -0.424513 0.089185
v -0.065163 -0.416388 0.089185
v -0.144478 -0.392328 0.089185
v -0.217576 -0.353257 0.089185
v -0.281647 -0.300675 0.089185
v -0.334228 -0.236605 0.089185
v -0.373299 -0.163507 0.089185
v -0.397360 -0.084192 0.089185
v -0.405484 -0.001706 0.089185
v -0.397360 0.080779 0.089185
v -0.373299 0.160095 0.089185
v -0.334228 0.233192 0.089185
v -0.281647 0.297263 0.089185
v -0.217576 0.349844 0.089185
v -0.144478 0.388916 0.089185
v -0.065163 0.412976 0.089185
v 0.831470 -0.555570 0.150000
v 0.923880 -0.382683 0.150000
v 0.707107 -0.707107 0.150000
v 0.555570 -0.831470 0.150000
v 0.382683 -0.923880 0.150000
v 0.195090 -0.980785 0.150000
v 0.923880 -0.382683 0.000000
v 0.831470 -0.555570 0.000000
v 0.707107 -0.707107 0.000000
v 0.555570 -0.831470 0.000000
v 0.382683 -0.923880 0.000000
v 0.195090 -0.980785 0.000000
vt 1.000000 1.000000
vt 0.968750 0.750000
vt 1.000000 0.750000
vt 0.968750 1.000000
vt 0.937500 0.750000
vt 0.937500 1.000000
vt 0.906250 0.750000
vt 0.906250 1.000000
vt 0.875000 0.750000
vt 0.875000 1.000000
vt 0.843750 0.750000
vt 0.843750 1.000000
vt 0.812500 0.750000
vt 0.812500 1.000000
vt 0.781250 0.750000
vt 0.781250 1.000000
vt 0.750000 0.750000
vt 0.734375 1.000000
vt 0.718750 0.750000
vt 0.734375 0.750000
vt 0.718750 1.000000
vt 0.687500 0.750000
vt 0.625000 1.000000
vt 0.593750 1.000000
vt 0.625000 1.000000
vt 0.000000 0.000000
vt 0.000000 0.000000
vt 0.000000 0.000000
vt 0.656250 1.000000
vt 0.656250 1.000000
vt 0.562500 1.000000
vt 0.531250 1.000000
vt 0.562500 1.000000
vt 0.000000 0.000000
vt 0.000000 0.000000
vt 0.531250 1.000000
vt 0.500000 0.750000
vt 0.531250 0.750000
vt 0.500000 1.000000
vt 0.468750 0.750000
vt 0.468750 1.000000
vt 0.437500 0.750000
vt 0.437500 1.000000
vt 0.406250 0.750000
vt 0.406250 1.000000
vt 0.375000 0.750000
vt 0.375000 1.000000
vt 0.343750 0.750000
vt 0.343750 1.000000
vt 0.312500 0.750000
vt 0.312500 1.000000
vt 0.281250 0.750000
vt 0.281250 1.000000
vt 0.250000 0.750000
vt 0.250000 1.000000
vt 0.218750 0.750000
vt 0.218750 1.000000
vt 0.187500 0.750000
vt 0.187500 1.000000
vt 0.156250 0.750000
vt 0.156250 1.000000
vt 0.125000 0.750000
vt 0.125000 1.000000
vt 0.093750 0.750000
vt 0.093750 1.000000
vt 0.062500 0.750000
vt 0.968750 1.000000
vt 0.937500 1.000000
vt 0.062500 1.000000
vt 0.031250 0.750000
vt 0.031250 1.000000
vt 0.000000 0.750000
vt 0.750000 1.000000
vt 0.718750 1.000000
vt 0.687500 1.000000
vt 0.687500 1.000000
vt 0.125000 1.000000
vt 0.093750 1.000000
vt 0.500000 1.000000
vt 0.906250 1.000000
vt 0.062500 1.000000
vt 0.468750 1.000000
vt 0.875000 1.000000
vt 0.031250 1.000000
vt 0.437500 1.000000
vt 0.843750 1.000000
vt 0.000000 1.000000
vt 0.000000 1.000000
vt 0.406250 1.000000
vt 0.812500 1.000000
vt 0.375000 1.000000
vt 0.781250 1.000000
vt 0.343750 1.000000
vt 0.750000 1.000000
vt 0.312500 1.000000
vt 0.734375 1.000000
vt 0.281250 1.000000
vt 0.687500 1.000000
vt 0.250000 1.000000
vt 0.656250 1.000000
vt 0.218750 1.000000
vt 0.625000 1.000000
vt 0.187500 1.000000
vt 0.593750 1.000000
vt 0.593750 1.000000
vt 1.000000 1.000000
vt 0.156250 1.000000
vt 0.562500 1.000000
vt 0.531250 1.000000
vt 0.383337 0.449553
vt 0.341844 0.471731
vt 0.487694 0.226589
vt 0.250000 1.000000
vt 0.656250 1.000000
vt 0.218750 1.000000
vt 0.625000 1.000000
vt 0.187500 1.000000
vt 0.593750 1.000000
vt 0.156250 1.000000
vt 0.562500 1.000000
vt 0.968750 1.000000
vt 0.125000 1.000000
vt 0.531250 1.000000
vt 0.937500 1.000000
vt 0.093750 1.000000
vt 0.500000 1.000000
vt 0.906250 1.000000
vt 0.062500 1.000000
vt 0.468750 1.000000
vt 0.875000 1.000000
vt 0.031250 1.000000
vt 0.437500 1.000000
vt 0.843750 1.000000
vt 0.000000 1.000000
vt 0.406250 1.000000
vt 0.812500 1.000000
vt 0.718750 1.000000
vt 0.375000 1.000000
vt 0.781250 1.000000
vt 0.343750 1.000000
vt 0.750000 1.000000
vt 0.312500 1.000000
vt 0.734375 1.000000
vt 0.281250 1.000000
vt 0.687500 1.000000
vt 0.656250 0.750000
vt 0.687500 0.750000
vt 0.625000 0.750000
vt 0.593750 0.750000
vt 0.562500 0.750000
vt 0.531250 0.750000
vt 0.000000 0.000000
vt 0.000000 0.000000
vt 0.000000 0.000000
vt 0.000000 0.000000
vt 0.000000 0.000000
vt 0.000000 0.000000
vt 0.296822 0.485388
vt 0.250000 0.490000
vt 0.203178 0.485388
vt 0.158156 0.471731
vt 0.116663 0.449553
vt 0.080294 0.419706
vt 0.050447 0.383337
vt 0.028269 0.341844
vt 0.014612 0.296822
vt 0.010000 0.250000
vt 0.014612 0.203178
vt 0.028269 0.158156
vt 0.050447 0.116663
vt 0.080294 0.080294
vt 0.116663 0.050447
vt 0.158156 0.028269
vt 0.203178 0.014612
vt 0.250000 0.010000
vt 0.296822 0.014612
vt 0.341844 0.028269
vt 0.383337 0.050447
vt 0.419706 0.080294
vt 0.449553 0.116663
vt 0.471731 0.158156
vt 0.485388 0.203178
vt 0.490000 0.250000
vt 0.485388 0.296822
vt 0.471731 0.341844
vt 0.449553 0.383337
vt 0.419706 0.419706
vt 1.000000 1.000000
vt 0.000000 0.000000
vn 0.0980 0.9952 0.0000
vn 0.2903 0.9569 0.0000
vn 0.4714 0.8819 0.0000
vn 0.6344 0.7730 0.0000
vn 0.7730 0.6344 0.0000
vn 0.8819 0.4714 0.0000
vn 0.9569 0.2903 0.0000
vn 0.9952 0.0980 0.0000
vn 0.9952 -0.0980 0.0000
vn 0.9569 -0.2903 0.0000
vn 0.0000 0.0000 1.0000
vn 0.0980 -0.9952 0.0000
vn -0.0980 -0.9952 0.0000
vn -0.2903 -0.9569 0.0000
vn -0.4714 -0.8819 0.0000
vn -0.6344 -0.7730 0.0000
vn -0.7730 -0.6344 0.0000
vn -0.8819 -0.4714 0.0000
vn -0.9569 -0.2903 0.0000
vn -0.9952 -0.0980 0.0000
vn -0.9952 0.0980 0.0000
vn -0.9569 0.2903 0.0000
vn -0.8819 0.4714 0.0000
vn -0.7730 0.6344 0.0000
vn -0.6344 0.7730 0.0000
vn -0.4714 0.8819 0.0000
vn -0.2903 0.9569 0.0000
vn -0.0980 0.9952 0.0000
vn 0.8819 -0.4714 0.0000
vn 0.7730 -0.6344 0.0000
vn 0.6344 -0.7730 0.0000
vn 0.4714 -0.8819 0.0000
vn 0.2903 -0.9569 0.0000
s off
f 1/1/1 34/2/1 33/3/1
f 2/4/2 35/5/2 34/2/2
f 3/6/3 36/7/3 35/5/3
f 4/8/4 37/9/4 36/7/4
f 5/10/5 38/11/5 37/9/5
f 6/12/6 39/13/6 38/11/6
f 7/14/7 40/15/7 39/13/7
f 8/16/8 41/17/8 40/15/8
f 65/18/9 42/19/9 66/20/9
f 10/21/10 43/22/10 42/19/10
f 13/23/11 136/24/11 135/25/11
f 45/26/11 140/27/11 141/28/11
f 12/29/11 135/25/11 133/30/11
f 15/31/11 138/32/11 137/33/11
f 46/34/11 141/28/11 142/35/11
f 16/36/12 49/37/12 48/38/12
f 17/39/13 50/40/13 49/37/13
f 18/41/14 51/42/14 50/40/14
f 19/43/15 52/44/15 51/42/15
f 20/45/16 53/46/16 52/44/16
f 21/47/17 54/48/17 53/46/17
f 22/49/18 55/50/18 54/48/18
f 23/51/19 56/52/19 55/50/19
f 24/53/20 57/54/20 56/52/20
f 25/55/21 58/56/21 57/54/21
f 26/57/22 59/58/22 58/56/22
f 27/59/23 60/60/23 59/58/23
f 28/61/24 61/62/24 60/60/24
f 29/63/25 62/64/25 61/62/25
f 30/65/26 63/66/26 62/64/26
f 3/6/11 67/67/11 69/68/11
f 31/69/27 64/70/27 63/66/27
f 32/71/28 33/72/28 64/70/28
f 9/73/9 66/20/9 41/17/9
f 78/74/22 110/75/22 77/76/22
f 65/18/11 78/74/11 10/21/11
f 30/65/11 96/77/11 97/78/11
f 16/36/11 84/79/11 17/39/11
f 4/8/11 69/68/11 70/80/11
f 31/69/11 97/78/11 98/81/11
f 17/39/11 85/82/11 18/41/11
f 5/10/11 70/80/11 71/83/11
f 32/71/11 98/81/11 99/84/11
f 18/41/11 86/85/11 19/43/11
f 6/12/11 71/83/11 72/86/11
f 1/87/11 99/84/11 68/88/11
f 19/43/11 87/89/11 20/45/11
f 7/14/11 72/86/11 73/90/11
f 20/45/11 88/91/11 21/47/11
f 8/16/11 73/90/11 74/92/11
f 21/47/11 89/93/11 22/49/11
f 9/73/11 74/92/11 75/94/11
f 22/49/11 90/95/11 23/51/11
f 65/18/11 75/94/11 76/96/11
f 23/51/11 91/97/11 24/53/11
f 10/21/11 77/76/11 11/98/11
f 24/53/11 92/99/11 25/55/11
f 11/98/11 79/100/11 12/29/11
f 26/57/11 92/99/11 93/101/11
f 12/29/11 80/102/11 13/23/11
f 27/59/11 93/101/11 94/103/11
f 13/23/11 81/104/11 14/105/11
f 2/4/11 68/106/11 67/67/11
f 28/61/11 94/103/11 95/107/11
f 14/105/11 82/108/11 15/31/11
f 29/63/11 95/107/11 96/77/11
f 15/31/11 83/109/11 16/36/11
f 103/110/11 102/111/11 109/112/11
f 91/97/8 125/113/8 92/99/8
f 77/76/23 112/114/23 79/100/23
f 92/99/9 126/115/9 93/101/9
f 79/100/24 113/116/24 80/102/24
f 93/101/10 127/117/10 94/103/10
f 80/102/25 114/118/25 81/104/25
f 94/103/29 128/119/29 95/107/29
f 81/104/26 115/120/26 82/108/26
f 68/106/13 100/121/13 67/67/13
f 95/107/30 129/122/30 96/77/30
f 82/108/27 116/123/27 83/109/27
f 67/67/14 102/124/14 69/68/14
f 96/77/31 130/125/31 97/78/31
f 83/109/28 117/126/28 84/79/28
f 69/68/15 103/127/15 70/80/15
f 97/78/32 131/128/32 98/81/32
f 84/79/1 118/129/1 85/82/1
f 70/80/16 104/130/16 71/83/16
f 98/81/33 132/131/33 99/84/33
f 85/82/2 119/132/2 86/85/2
f 71/83/17 105/133/17 72/86/17
f 99/84/12 101/134/12 68/88/12
f 86/85/3 120/135/3 87/89/3
f 72/86/18 106/136/18 73/90/18
f 76/96/21 111/137/21 78/74/21
f 87/89/4 121/138/4 88/91/4
f 73/90/19 107/139/19 74/92/19
f 88/91/5 122/140/5 89/93/5
f 74/92/20 108/141/20 75/94/20
f 89/93/6 123/142/6 90/95/6
f 75/94/21 109/143/21 76/96/21
f 90/95/7 124/144/7 91/97/7
f 134/145/29 140/146/29 139/147/29
f 133/30/30 141/148/30 140/146/30
f 135/25/31 142/149/31 141/148/31
f 136/24/32 143/150/32 142/149/32
f 137/33/33 144/151/33 143/150/33
f 48/152/11 143/153/11 144/154/11
f 16/36/11 144/151/11 138/32/11
f 44/155/11 139/156/11 140/27/11
f 47/157/11 142/35/11 143/153/11
f 14/105/11 137/33/11 136/24/11
f 11/98/11 133/30/11 134/145/11
f 43/22/11 134/145/11 139/147/11
f 1/1/1 2/4/1 34/2/1
f 2/4/2 3/6/2 35/5/2
f 3/6/3 4/8/3 36/7/3
f 4/8/4 5/10/4 37/9/4
f 5/10/5 6/12/5 38/11/5
f 6/12/6 7/14/6 39/13/6
f 7/14/7 8/16/7 40/15/7
f 8/16/8 9/73/8 41/17/8
f 65/18/9 10/21/9 42/19/9
f 10/21/10 11/98/10 43/22/10
f 13/23/11 14/105/11 136/24/11
f 45/26/11 44/155/11 140/27/11
f 12/29/11 13/23/11 135/25/11
f 15/31/11 16/36/11 138/32/11
f 46/34/11 45/26/11 141/28/11
f 16/36/12 17/39/12 49/37/12
f 17/39/13 18/41/13 50/40/13
f 18/41/14 19/43/14 51/42/14
f 19/43/15 20/45/15 52/44/15
f 20/45/16 21/47/16 53/46/16
f 21/47/17 22/49/17 54/48/17
f 22/49/18 23/51/18 55/50/18
f 23/51/19 24/53/19 56/52/19
f 24/53/20 25/55/20 57/54/20
f 25/55/21 26/57/21 58/56/21
f 26/57/22 27/59/22 59/58/22
f 27/59/23 28/61/23 60/60/23
f 28/61/24 29/63/24 61/62/24
f 29/63/25 30/65/25 62/64/25
f 30/65/26 31/69/26 63/66/26
f 3/6/11 2/4/11 67/67/11
f 31/69/27 32/71/27 64/70/27
f 32/71/28 1/87/28 33/72/28
f 9/73/9 65/18/9 66/20/9
f 78/74/22 111/137/22 110/75/22
f 65/18/11 76/96/11 78/74/11
f 30/65/11 29/63/11 96/77/11
f 16/36/11 83/109/11 84/79/11
f 4/8/11 3/6/11 69/68/11
f 31/69/11 30/65/11 97/78/11
f 17/39/11 84/79/11 85/82/11
f 5/10/11 4/8/11 70/80/11
f 32/71/11 31/69/11 98/81/11
f 18/41/11 85/82/11 86/85/11
f 6/12/11 5/10/11 71/83/11
f 1/87/11 32/71/11 99/84/11
f 19/43/11 86/85/11 87/89/11
f 7/14/11 6/12/11 72/86/11
f 20/45/11 87/89/11 88/91/11
f 8/16/11 7/14/11 73/90/11
f 21/47/11 88/91/11 89/93/11
f 9/73/11 8/16/11 74/92/11
f 22/49/11 89/93/11 90/95/11
f 65/18/11 9/73/11 75/94/11
f 23/51/11 90/95/11 91/97/11
f 10/21/11 78/74/11 77/76/11
f 24/53/11 91/97/11 92/99/11
f 11/98/11 77/76/11 79/100/11
f 26/57/11 25/55/11 92/99/11
f 12/29/11 79/100/11 80/102/11
f 27/59/11 26/57/11 93/101/11
f 13/23/11 80/102/11 81/104/11
f 2/4/11 1/1/11 68/106/11
f 28/61/11 27/59/11 94/103/11
f 14/105/11 81/104/11 82/108/11
f 29/63/11 28/61/11 95/107/11
f 15/31/11 82/108/11 83/109/11
f 102/111/11 100/158/11 109/112/11
f 100/158/11 101/159/11 109/112/11
f 101/159/11 132/160/11 109/112/11
f 132/160/11 131/161/11 109/112/11
f 131/161/11 130/162/11 109/112/11
f 130/162/11 129/163/11 109/112/11
f 129/163/11 128/164/11 109/112/11
f 128/164/11 127/165/11 109/112/11
f 127/165/11 126/166/11 109/112/11
f 126/166/11 125/167/11 109/112/11
f 125/167/11 124/168/11 109/112/11
f 124/168/11 123/169/11 109/112/11
f 123/169/11 122/170/11 109/112/11
f 122/170/11 121/171/11 109/112/11
f 121/171/11 120/172/11 109/112/11
f 120/172/11 119/173/11 109/112/11
f 119/173/11 118/174/11 109/112/11
f 118/174/11 117/175/11 109/112/11
f 117/175/11 116/176/11 109/112/11
f 116/176/11 115/177/11 109/112/11
f 115/177/11 114/178/11 109/112/11
f 114/178/11 113/179/11 109/112/11
f 113/179/11 112/180/11 109/112/11
f 112/180/11 110/181/11 109/112/11
f 110/181/11 111/182/11 109/112/11
f 109/112/11 108/183/11 107/184/11
f 107/184/11 106/185/11 109/112/11
f 106/185/11 105/186/11 109/112/11
f 105/186/11 104/187/11 109/112/11
f 104/187/11 103/110/11 109/112/11
f 91/97/8 124/144/8 125/113/8
f 77/76/23 110/75/23 112/114/23
f 92/99/9 125/113/9 126/115/9
f 79/100/24 112/114/24 113/116/24
f 93/101/10 126/115/10 127/117/10
f 80/102/25 113/116/25 114/118/25
f 94/103/29 127/117/29 128/119/29
f 81/104/26 114/118/26 115/120/26
f 68/106/13 101/188/13 100/121/13
f 95/107/30 128/119/30 129/122/30
f 82/108/27 115/120/27 116/123/27
f 67/67/14 100/121/14 102/124/14
f 96/77/31 129/122/31 130/125/31
f 83/109/28 116/123/28 117/126/28
f 69/68/15 102/124/15 103/127/15
f 97/78/32 130/125/32 131/128/32
f 84/79/1 117/126/1 118/129/1
f 70/80/16 103/127/16 104/130/16
f 98/81/33 131/128/33 132/131/33
f 85/82/2 118/129/2 119/132/2
f 71/83/17 104/130/17 105/133/17
f 99/84/12 132/131/12 101/134/12
f 86/85/3 119/132/3 120/135/3
f 72/86/18 105/133/18 106/136/18
f 76/96/21 109/143/21 111/137/21
f 87/89/4 120/135/4 121/138/4
f 73/90/19 106/136/19 107/139/19
f 88/91/5 121/138/5 122/140/5
f 74/92/20 107/139/20 108/141/20
f 89/93/6 122/140/6 123/142/6
f 75/94/21 108/141/21 109/143/21
f 90/95/7 123/142/7 124/144/7
f 134/145/29 133/30/29 140/146/29
f 133/30/30 135/25/30 141/148/30
f 135/25/31 136/24/31 142/149/31
f 136/24/32 137/33/32 143/150/32
f 137/33/33 138/32/33 144/151/33
f 48/152/11 47/157/11 143/153/11
f 16/36/11 48/38/11 144/151/11
f 44/155/11 43/189/11 139/156/11
f 47/157/11 46/34/11 142/35/11
f 14/105/11 15/31/11 137/33/11
f 11/98/11 12/29/11 133/30/11
f 43/22/11 11/98/11 134/145/11
o Cone_Cone.001
v 0.580000 0.793686 0.150000
v 0.793686 0.580000 0.150000
v 0.580000 0.366314 0.150000
v 0.366314 0.580000 0.150000
v 0.230000 0.230000 1.477373
v -0.580000 0.793686 0.150000
v -0.793686 0.580000 0.150000
v -0.580000 0.366314 0.150000
v -0.366314 0.580000 0.150000
v -0.230000 0.230000 1.477373
v 0.580000 -0.793686 0.150000
v 0.793686 -0.580000 0.150000
v 0.580000 -0.366314 0.150000
v 0.366314 -0.580000 0.150000
v 0.230000 -0.230000 1.477373
v -0.580000 -0.793686 0.150000
v -0.793686 -0.580000 0.150000
v -0.580000 -0.366314 0.150000
v -0.366314 -0.580000 0.150000
v -0.230000 -0.230000 1.477373
vt 0.250000 0.490000
vt 0.250000 0.250000
vt 0.490000 0.250000
vt 0.250000 0.010000
vt 0.990000 0.250000
vt 0.510000 0.250000
vt 0.750000 0.490000
vt 0.010000 0.250000
vt 0.250000 0.490000
vt 0.490000 0.250000
vt 0.250000 0.250000
vt 0.250000 0.010000
vt 0.510000 0.250000
vt 0.990000 0.250000
vt 0.750000 0.490000
vt 0.010000 0.250000
vt 0.250000 0.490000
vt 0.490000 0.250000
vt 0.250000 0.250000
vt 0.250000 0.010000
vt 0.510000 0.250000
vt 0.990000 0.250000
vt 0.750000 0.490000
vt 0.010000 0.250000
vt 0.250000 0.490000
vt 0.250000 0.250000
vt 0.490000 0.250000
vt 0.250000 0.010000
vt 0.990000 0.250000
vt 0.510000 0.250000
vt 0.750000 0.490000
vt 0.010000 0.250000
vt 0.750000 0.010000
vt 0.750000 0.010000
vt 0.750000 0.010000
vt 0.750000 0.010000
vn 0.6358 0.6358 0.4376
vn 0.7026 -0.7026 0.1131
vn 0.0000 0.0000 -1.0000
vn -0.6845 -0.6845 -0.2508
vn -0.7026 0.7026 0.1131
vn -0.6358 0.6358 0.4376
vn -0.7026 -0.7026 0.1131
vn 0.6845 -0.6845 -0.2508
vn 0.7026 0.7026 0.1131
vn 0.6358 -0.6358 0.4376
vn -0.6845 0.6845 -0.2508
vn -0.6358 -0.6358 0.4376
vn 0.6845 0.6845 -0.2508
s off
f 145/190/34 149/191/34 146/192/34
f 146/192/35 149/191/35 147/193/35
f 146/194/36 148/195/36 145/196/36
f 147/193/37 149/191/37 148/197/37
f 148/197/38 149/191/38 145/190/38
f 150/198/39 151/199/39 154/200/39
f 151/199/40 152/201/40 154/200/40
f 153/202/36 151/203/36 150/204/36
f 152/201/41 153/205/41 154/200/41
f 153/205/42 150/198/42 154/200/42
f 155/206/43 156/207/43 159/208/43
f 156/207/42 157/209/42 159/208/42
f 158/210/36 156/211/36 155/212/36
f 157/209/44 158/213/44 159/208/44
f 158/213/40 155/206/40 159/208/40
f 160/214/45 164/215/45 161/216/45
f 161/216/38 164/215/38 162/217/38
f 161/218/36 163/219/36 160/220/36
f 162/217/46 164/215/46 163/221/46
f 163/221/35 164/215/35 160/214/35
f 146/194/36 147/222/36 148/195/36
f 153/202/36 152/223/36 151/203/36
f 158/210/36 157/224/36 156/211/36
f 161/218/36 162/225/36 163/219/36
